<?xml version="1.0" standalone="no"?>
<!DOCTYPE svg PUBLIC "-//W3C//DTD SVG 20010904//EN"
 "http://www.w3.org/TR/2001/REC-SVG-20010904/DTD/svg10.dtd">
<svg version="1.0" xmlns="http://www.w3.org/2000/svg"
 width="16.000000pt" height="16.000000pt" viewBox="0 0 16.000000 16.000000"
 preserveAspectRatio="xMidYMid meet">
<metadata>
Created by potrace 1.11, written by Peter Selinger 2001-2013
</metadata>
<g transform="translate(0.000000,16.000000) scale(0.008000,-0.008000)"
fill="#000000" stroke="none">
<path d="M0 1821 c0 -211 -12 -194 140 -196 52 0 151 -2 220 -5 107 -4 91 -5
-115 -10 l-240 -5 -3 -462 -2 -463 77 0 c42 0 74 -3 70 -6 -3 -4 -38 -6 -77
-5 l-70 1 0 -254 0 -255 46 20 c26 11 48 18 49 17 5 -5 36 -83 35 -88 -2 -13
-55 -18 -69 -7 -12 10 -13 9 -7 -3 5 -8 -5 1 -22 20 -35 40 -43 33 -12 -10 16
-22 30 -30 63 -33 33 -3 28 -4 -20 -5 -63 -2 -63 -2 -63 -32 0 -23 4 -28 16
-23 11 4 12 9 5 16 -18 18 -13 27 14 27 20 0 24 -4 22 -22 -2 -12 -12 -25 -23
-30 -16 -6 -15 -7 6 -5 19 1 26 8 28 29 2 16 8 28 14 28 5 0 8 -7 4 -15 -3 -8
-1 -15 4 -15 6 0 10 5 10 10 0 6 5 10 11 10 5 0 7 -4 4 -10 -4 -6 8 -10 28
-10 21 0 37 -6 40 -15 5 -12 93 -14 621 -14 572 0 616 1 626 17 9 13 10 13 7
1 -4 -11 4 -16 30 -17 34 -3 35 -1 30 25 l-6 28 12 -27 c12 -30 34 -40 22 -10
-3 9 -8 31 -11 47 -2 18 2 12 12 -17 15 -48 15 -48 60 -48 l46 0 -7 32 c-10
45 -28 73 -22 35 6 -38 -9 -21 -18 20 -5 26 -2 34 14 42 25 14 28 9 37 -67 l7
-63 87 2 87 1 -19 39 c-24 50 -49 54 -103 18 l-30 -20 32 28 31 28 -46 22
c-52 25 -102 67 -102 86 0 8 4 7 10 -3 14 -22 18 -9 8 28 -8 30 -38 46 -38 21
0 -8 -5 -8 -15 1 -8 7 -15 20 -14 29 0 10 2 11 6 4 2 -7 9 -13 14 -13 6 0 7 6
3 13 -5 7 0 6 11 -3 16 -13 18 -13 13 0 -5 17 -58 27 -58 11 0 -6 -4 -11 -10
-11 -5 0 -7 14 -3 33 3 17 2 29 -2 25 -7 -7 -22 -71 -30 -127 -2 -13 -9 -29
-15 -35 -10 -8 -10 -6 -4 9 5 11 9 31 9 45 -1 14 4 28 10 32 6 5 4 8 -5 8 -14
0 -53 -42 -92 -99 -10 -14 -18 -21 -18 -15 0 6 16 29 35 51 19 23 44 61 55 85
11 23 19 33 16 20 -2 -12 -1 -22 4 -22 10 0 18 69 8 72 -4 2 -10 27 -13 57 -3
30 -8 58 -11 62 -3 5 -1 9 4 9 5 0 14 -17 20 -39 11 -35 17 -40 74 -60 35 -12
82 -29 105 -37 23 -8 61 -32 85 -53 42 -38 46 -39 133 -43 50 -3 98 -8 108
-12 16 -8 17 7 17 270 -1 267 -5 304 -31 304 -5 0 -5 -7 -2 -17 4 -11 3 -14
-5 -9 -7 4 -12 14 -12 22 0 8 -5 12 -11 9 -6 -4 -8 -10 -5 -13 3 -3 2 -10 -3
-16 -18 -22 -22 -90 -7 -111 10 -14 13 -35 9 -72 -4 -34 -2 -53 5 -53 13 0 3
-40 -16 -62 -13 -15 -13 -18 -1 -18 8 -1 -2 -8 -21 -17 -26 -12 -31 -17 -17
-20 11 -3 17 -14 17 -34 0 -16 -4 -29 -8 -29 -5 0 -17 -7 -28 -16 -18 -15 -18
-15 3 -5 29 15 52 5 46 -20 -4 -15 -2 -18 13 -12 11 3 21 9 24 13 3 3 13 -2
23 -12 9 -10 13 -18 8 -18 -6 0 -12 4 -16 9 -3 6 -22 4 -47 -5 -22 -7 -51 -14
-64 -14 -13 0 -24 -4 -24 -10 0 -5 8 -7 18 -3 9 3 14 3 11 -1 -4 -4 -16 -8
-28 -11 -17 -3 -19 -1 -12 13 6 12 5 26 -5 42 -21 39 -16 49 6 12 12 -19 25
-30 31 -26 8 5 8 8 0 13 -19 12 -31 67 -18 81 9 8 7 9 -7 4 -15 -6 -17 -4 -11
6 5 9 4 11 -3 6 -9 -5 -9 -13 -1 -29 12 -22 12 -22 -10 -3 -18 17 -21 17 -15
3 5 -13 1 -17 -17 -16 -18 1 -19 3 -6 6 9 2 15 8 12 13 -3 4 8 19 23 32 24 20
26 26 15 36 -10 10 -13 10 -13 0 0 -21 -60 -68 -86 -68 -30 0 -23 -24 20 -63
l31 -27 -37 22 c-32 20 -44 41 -39 71 0 4 -4 7 -10 7 -6 0 -9 6 -6 14 3 8 -1
22 -9 33 -14 17 -15 17 -6 -2 4 -11 5 -36 2 -55 -5 -30 -8 -22 -18 50 -25 166
-45 270 -54 270 -4 0 -8 -6 -9 -12 0 -7 -2 -23 -3 -35 -2 -15 2 -19 12 -15 10
3 13 1 8 -6 -4 -7 -14 -12 -22 -12 -8 0 -14 -4 -14 -8 0 -5 -6 -17 -14 -28
-10 -13 -9 -2 4 36 11 30 19 63 20 73 0 13 6 17 22 15 21 -3 22 1 20 37 -2 22
-8 67 -13 99 -15 88 -14 198 2 224 11 17 11 24 1 34 -16 16 -15 28 2 28 11 0
15 11 14 38 0 20 5 71 10 111 6 41 7 82 2 90 -4 9 -11 36 -15 61 -4 25 -18 64
-32 87 -13 23 -22 46 -19 51 3 5 -1 18 -9 28 -8 10 -15 14 -15 8 0 -5 6 -16
13 -23 10 -10 9 -11 -5 -6 -10 4 -18 13 -18 20 0 7 -7 16 -16 19 -13 5 -14 9
-4 21 13 16 3 20 -24 9 -9 -3 -13 -10 -10 -16 7 -10 13 -58 8 -58 -2 0 -15 21
-30 48 -15 26 -37 58 -48 71 -24 27 -4 19 32 -12 30 -28 46 -12 31 31 -6 18
-15 32 -21 32 -5 0 -26 18 -45 40 -36 40 -60 52 -50 26 5 -12 1 -13 -24 -4
-39 13 -51 2 -13 -12 28 -11 28 -12 10 -26 -11 -8 -15 -14 -9 -14 7 0 15 5 18
10 3 6 16 10 28 9 18 0 16 -3 -11 -15 -38 -17 -74 -10 -66 11 3 8 2 20 -2 27
-5 7 -9 19 -9 27 0 21 -63 53 -89 46 -20 -6 -20 -6 -2 9 11 9 16 19 13 23 -4
4 -12 2 -18 -4 -6 -6 -18 -9 -25 -6 -8 3 -20 1 -27 -5 -6 -5 -23 -13 -37 -17
-22 -7 -23 -6 -11 9 14 16 3 22 -15 9 -5 -5 1 2 13 14 17 17 31 21 52 17 16
-4 32 -1 35 5 5 7 1 9 -8 5 -12 -5 -16 1 -16 24 l0 30 -205 1 c-193 0 -205 -1
-202 -18 2 -10 11 -26 20 -35 22 -22 32 -43 41 -81 l7 -30 -25 34 c-28 38 -32
46 -16 36 6 -3 10 -1 10 5 0 6 -6 13 -13 16 -8 3 -24 19 -37 36 -12 17 -17 27
-10 23 9 -5 11 -4 6 3 -4 7 -22 12 -39 12 l-32 -1 45 -41 c25 -22 36 -36 25
-30 -11 6 -35 24 -53 41 l-33 31 -315 0 -314 0 0 -179z m948 149 c7 -11 9 -20
4 -20 -4 0 -13 9 -20 20 -7 11 -9 20 -4 20 4 0 13 -9 20 -20z m98 2 c-2 -4 -1
-14 3 -21 7 -11 13 -10 34 3 20 14 27 14 33 4 4 -7 3 -10 -1 -5 -5 4 -18 1
-29 -6 -12 -8 -33 -16 -49 -19 -22 -4 -25 -3 -16 9 10 11 8 12 -7 7 -28 -10
-45 -25 -39 -34 3 -5 -5 -12 -17 -16 -13 -4 -36 -20 -52 -35 -21 -21 -32 -26
-37 -17 -11 17 11 40 30 33 8 -3 12 -3 8 1 -4 4 0 15 9 25 21 23 12 51 -13 42
-15 -6 -16 -5 -3 9 13 14 17 13 41 -5 26 -18 56 -16 44 3 -3 5 9 14 27 19 18
5 34 10 36 10 2 1 1 -3 -2 -7z m-191 -17 c-11 -9 -27 -24 -36 -35 -14 -16 -18
-17 -23 -5 -3 8 0 14 7 12 7 -1 11 5 9 13 -2 8 0 12 3 8 4 -4 17 -1 29 7 27
19 37 19 11 0z m53 -28 c22 8 13 -5 -20 -28 -33 -23 -33 -23 -14 -1 11 12 14
22 8 22 -6 0 -14 -5 -17 -10 -4 -6 -11 -8 -16 -4 -17 10 11 35 30 25 9 -5 22
-6 29 -4z m-207 -69 c5 -10 6 -18 1 -18 -5 0 -14 11 -20 25 -22 49 -11 44 19
-7z m120 19 c-10 -9 -11 -8 -5 6 3 10 9 15 12 12 3 -3 0 -11 -7 -18z m194 -15
c-3 -3 -11 0 -18 7 -9 10 -8 11 6 5 10 -3 15 -9 12 -12z m251 -29 c-7 -7 -26
7 -26 19 0 6 6 6 15 -2 9 -7 13 -15 11 -17z m-458 -25 c9 5 24 7 32 4 13 -5
13 -3 0 13 -14 17 -14 18 9 5 21 -11 22 -14 8 -22 -23 -12 -21 -23 6 -37 17
-9 17 -10 2 -5 -11 3 -27 9 -35 12 -11 4 -10 -1 4 -16 11 -12 16 -22 12 -22
-10 0 -96 81 -96 91 0 5 9 0 20 -11 15 -15 25 -18 38 -12z m462 -10 c0 -4 -16
0 -35 8 -19 7 -45 14 -57 14 -16 0 -19 3 -10 9 14 8 102 -18 102 -31z m-526
-24 c3 -8 2 -12 -4 -9 -6 3 -10 10 -10 16 0 14 7 11 14 -7z m61 -24 c10 -11
16 -20 13 -20 -3 0 -13 9 -23 20 -10 11 -16 20 -13 20 3 0 13 -9 23 -20z m130
-10 c3 -6 -1 -7 -9 -4 -18 7 -21 14 -7 14 6 0 13 -4 16 -10z m421 -31 l29 -32
-27 18 c-16 9 -28 21 -28 25 0 4 -12 6 -27 3 -24 -3 -25 -2 -8 6 29 14 29 14
61 -20z m-746 6 c0 -8 -4 -15 -10 -15 -5 0 -7 7 -4 15 4 8 8 15 10 15 2 0 4
-7 4 -15z m64 -22 c-10 -43 -53 -83 -88 -83 -24 0 -27 3 -16 10 8 5 24 7 35 4
16 -4 17 -3 5 5 -12 9 -9 17 4 9 9 -6 45 35 50 58 4 13 9 24 11 24 3 0 2 -12
-1 -27z m-35 -29 c-10 -12 -14 -12 -20 -2 -12 18 -11 30 1 23 6 -3 10 2 10 12
1 17 1 17 11 0 8 -13 7 -22 -2 -33z m656 24 c19 3 37 -8 80 -49 31 -30 62 -63
67 -74 6 -11 -11 4 -38 33 -55 57 -66 62 -87 32 -13 -18 -15 -18 -37 -3 -22
15 -22 17 -5 30 18 12 18 13 -2 13 -12 0 -28 -6 -35 -14 -12 -11 -16 -10 -25
10 -6 13 -8 25 -5 29 10 9 43 5 37 -5 -3 -5 -1 -10 4 -10 6 0 12 8 12 18 1 14
2 14 6 1 3 -11 12 -15 28 -11z m-755 -68 c0 -5 -9 -10 -19 -10 -11 0 -23 5
-26 10 -4 6 5 10 19 10 14 0 26 -4 26 -10z m948 -337 c-10 -2 -28 -2 -40 0
-13 2 -5 4 17 4 22 1 32 -1 23 -4z m-831 -9 c-3 -3 -12 -4 -19 -1 -8 3 -5 6 6
6 11 1 17 -2 13 -5z m761 -11 c-10 -2 -28 -2 -40 0 -13 2 -5 4 17 4 22 1 32
-1 23 -4z m-271 -9 c-3 -3 -12 -4 -19 -1 -8 3 -5 6 6 6 11 1 17 -2 13 -5z
m-539 -44 c-7 -10 -14 -17 -17 -15 -4 4 18 35 25 35 2 0 -1 -9 -8 -20z m581
17 c-2 -2 -17 -11 -34 -21 l-30 -17 24 20 c13 12 28 21 34 21 6 0 8 -1 6 -3z
m349 -28 c-3 -8 -7 -3 -11 10 -4 17 -3 21 5 13 5 -5 8 -16 6 -23z m-3 -76 c-9
-50 -33 -100 -51 -107 -10 -4 -8 3 6 22 22 30 33 92 17 92 -9 0 22 29 32 30 2
0 0 -17 -4 -37z m38 -74 c-8 -30 -19 -30 -17 -1 2 44 4 48 13 33 5 -7 6 -22 4
-32z m-938 -31 c4 -7 -3 -2 -14 12 -11 14 -21 32 -21 40 0 13 5 5 35 -52z
m555 27 l25 -30 -27 24 c-16 14 -28 29 -28 34 0 6 1 8 3 6 1 -2 13 -17 27 -34z
m150 26 c0 -5 -9 -7 -20 -4 -11 3 -20 7 -20 9 0 2 9 4 20 4 11 0 20 -4 20 -9z
m-380 -14 c0 -2 -12 -14 -27 -28 l-28 -24 24 28 c23 25 31 32 31 24z m565 -47
c-10 -11 -22 -20 -28 -20 -5 0 1 9 14 20 31 25 37 25 14 0z m-909 -11 c19 -22
19 -22 -3 -8 -13 8 -23 17 -23 21 0 12 6 9 26 -13z m834 1 c-8 -5 -28 -9 -45
-9 -30 2 -30 2 5 9 51 11 57 11 40 0z m-430 -105 c13 -14 21 -25 18 -25 -2 0
-15 11 -28 25 -13 14 -21 25 -18 25 2 0 15 -11 28 -25z m116 15 c-15 -5 -36
-15 -45 -22 -9 -7 -6 -3 7 10 13 12 33 22 45 21 18 -1 17 -2 -7 -9z m-296 -24
c0 -2 -12 -11 -27 -20 l-28 -17 24 20 c23 21 31 25 31 17z m740 -83 c-11 -17
-11 -17 -6 0 3 10 7 28 7 40 2 22 2 22 6 0 2 -12 -1 -30 -7 -40z m-820 24 c0
-2 -10 -12 -22 -23 l-23 -19 19 23 c18 21 26 27 26 19z m807 -79 c-3 -7 -5 -2
-5 12 0 14 2 19 5 13 2 -7 2 -19 0 -25z m400 -20 c-3 -8 -6 -5 -6 6 -1 11 2
17 5 13 3 -3 4 -12 1 -19z m-30 -10 c-3 -8 -6 -5 -6 6 -1 11 2 17 5 13 3 -3 4
-12 1 -19z m24 -112 c-3 -31 -5 -36 -13 -22 -5 9 -6 26 -2 39 4 12 7 36 6 52
l-1 30 7 -30 c4 -16 5 -47 3 -69z m-1604 78 c-3 -3 -12 -4 -19 -1 -8 3 -5 6 6
6 11 1 17 -2 13 -5z m233 -11 c0 -14 -2 -15 -9 -4 -7 11 -26 13 -90 8 -45 -4
-81 -3 -81 2 0 5 41 9 90 10 80 2 90 0 90 -16z m1387 -145 c-3 -7 -5 -2 -5 12
0 14 2 19 5 13 2 -7 2 -19 0 -25z m-17 -82 c0 -8 6 -17 13 -19 9 -4 9 -6 0 -6
-7 -1 -17 8 -23 19 -7 14 -7 20 0 20 5 0 10 -6 10 -14z m-5 -36 c10 -11 16
-20 13 -20 -3 0 -13 9 -23 20 -10 11 -16 20 -13 20 3 0 13 -9 23 -20z m-1269
-16 c-3 -9 -6 -19 -6 -22 0 -4 -26 -8 -57 -10 -32 -1 -61 -6 -66 -11 -15 -15
-26 -84 -16 -102 7 -14 4 -22 -13 -33 -21 -15 -24 -14 -42 4 -11 11 -16 23
-12 27 4 4 12 0 17 -10 11 -19 34 -23 45 -5 4 7 3 8 -5 4 -7 -4 -19 2 -29 14
l-18 22 -66 -30 c-36 -16 -74 -38 -85 -48 -10 -11 -28 -20 -38 -22 -30 -4 -38
-7 -55 -17 -9 -5 -8 0 4 13 10 12 21 20 25 18 3 -2 12 2 19 10 7 8 10 14 6 14
-14 0 -74 -33 -74 -41 0 -5 -6 -9 -12 -9 -7 0 -1 11 13 24 l27 23 -28 -1 c-19
-1 -26 -5 -22 -15 4 -11 1 -11 -16 -2 -30 16 -37 14 -21 -6 13 -17 12 -17 -6
-2 -11 9 -27 19 -35 21 -25 9 59 21 106 15 25 -2 43 -2 40 0 -3 3 15 22 40 43
39 32 58 40 121 49 55 8 84 18 105 36 16 14 42 25 56 25 15 0 41 9 57 19 37
24 49 26 41 5z m694 -8 c0 -2 -8 -10 -17 -17 -16 -13 -17 -12 -4 4 13 16 21
21 21 13z m566 -14 c-10 -2 -22 0 -28 6 -6 6 0 7 19 4 21 -5 23 -7 9 -10z
m-166 -16 c-10 -13 -40 -12 -40 1 0 3 7 3 15 -1 8 -3 15 -1 15 4 0 6 5 10 11
10 8 0 8 -4 -1 -14z m-250 -111 c14 -18 13 -19 -1 -8 -9 7 -19 10 -23 6 -4 -4
-4 1 0 10 3 10 7 17 8 15 1 -2 8 -12 16 -23z m-1061 -45 c11 -24 11 -24 -3 -6
-9 11 -16 24 -16 30 0 12 5 7 19 -24z m966 -34 c-9 -20 -13 -42 -9 -48 4 -7 3
-8 -4 -4 -8 5 -12 -1 -12 -16 0 -15 -3 -19 -8 -10 -5 7 2 35 17 67 28 60 40
69 16 11z m-1050 16 c0 -6 6 -17 13 -23 6 -7 12 -17 12 -22 0 -4 -11 5 -24 20
-28 32 -36 29 -29 -10 4 -22 8 -25 19 -16 12 10 13 9 8 -5 -4 -11 -1 -16 13
-16 27 0 51 21 56 50 3 16 4 11 4 -12 -1 -20 -4 -35 -7 -33 -8 5 -50 -50 -50
-65 0 -5 8 -10 18 -10 14 0 15 -2 2 -10 -15 -10 -40 4 -40 23 0 6 -7 19 -16
29 -20 21 -27 100 -10 110 14 10 31 4 31 -10z m35 -2 c6 -11 8 -20 6 -20 -3 0
-10 9 -16 20 -6 11 -8 20 -6 20 3 0 10 -9 16 -20z m981 -34 c-6 -14 -13 -26
-16 -26 -7 0 -1 32 9 48 13 21 17 7 7 -22z m-871 20 c0 -2 -7 -7 -16 -10 -8
-3 -12 -2 -9 4 6 10 25 14 25 6z m1066 -9 c8 3 14 1 14 -5 0 -21 -30 -21 -41
1 -9 17 -9 20 1 10 7 -6 19 -9 26 -6z m-1293 -20 c-4 -7 1 -5 12 3 17 14 17
13 10 -9 -4 -14 -3 -26 4 -31 8 -4 9 -14 2 -31 -8 -23 -9 -22 -16 13 l-7 37
-39 -26 c-21 -14 -41 -34 -45 -45 -3 -11 -8 -17 -11 -15 -7 8 17 49 42 72 11
11 24 29 28 38 4 10 11 15 17 12 6 -4 7 -12 3 -18z m407 3 c-6 -11 -13 -20
-16 -20 -2 0 0 9 6 20 6 11 13 20 16 20 2 0 0 -9 -6 -20z m740 -17 c-11 -17
-11 -17 -6 0 3 10 6 24 7 30 0 9 2 9 5 0 3 -7 0 -20 -6 -30z m-1233 2 c0 -8
-4 -12 -9 -9 -5 3 -6 10 -3 15 9 13 12 11 12 -6z m36 -3 c-21 -22 -26 -21 -17
2 3 9 12 16 20 16 11 0 10 -4 -3 -18z m-63 -6 c0 -2 -8 -10 -17 -17 -16 -13
-17 -12 -4 4 13 16 21 21 21 13z m1151 -23 c-41 -55 -61 -78 -55 -61 5 15 65
88 72 88 2 0 -6 -12 -17 -27z m-546 -3 c-10 -11 -21 -18 -23 -15 -3 3 3 12 14
20 27 20 30 18 9 -5z m-625 -40 c0 -17 -15 -11 -28 11 -12 19 -11 19 8 9 11
-6 20 -15 20 -20z m640 26 c0 -2 -8 -10 -17 -17 -16 -13 -17 -12 -4 4 13 16
21 21 21 13z m611 -19 c-10 -9 -11 -8 -5 6 3 10 9 15 12 12 3 -3 0 -11 -7 -18z
m45 -24 c-11 -12 -27 13 -20 32 7 17 8 17 17 -3 6 -12 7 -25 3 -29z m-609 -13
c4 -12 3 -13 -5 -1 -6 8 -19 12 -31 8 -12 -3 -19 -1 -15 5 9 14 47 5 51 -12z
m33 16 c0 -3 -4 -8 -10 -11 -5 -3 -10 -1 -10 4 0 6 5 11 10 11 6 0 10 -2 10
-4z"/>
<path d="M1170 1984 c0 -8 5 -12 10 -9 6 3 10 10 10 16 0 5 -4 9 -10 9 -5 0
-10 -7 -10 -16z"/>
<path d="M1205 1990 c3 -5 8 -10 11 -10 2 0 4 5 4 10 0 6 -5 10 -11 10 -5 0
-7 -4 -4 -10z"/>
<path d="M1105 1910 c-3 -5 -2 -10 4 -10 5 0 13 5 16 10 3 6 2 10 -4 10 -5 0
-13 -4 -16 -10z"/>
<path d="M1220 1912 c0 -6 11 -13 24 -16 13 -3 32 -9 43 -12 16 -6 16 -5 -2 8
-27 20 -65 32 -65 20z"/>
<path d="M1967 1723 c-13 -12 -7 -33 10 -33 15 0 15 -1 0 -18 -10 -10 -17 -23
-17 -28 1 -20 40 42 40 64 0 21 -19 30 -33 15z"/>
<path d="M1992 1640 c0 -14 2 -19 5 -12 2 6 2 18 0 25 -3 6 -5 1 -5 -13z"/>
<path d="M1948 1560 c-53 -60 -65 -90 -19 -46 l29 28 7 -32 c7 -31 7 -31 22
-11 9 13 13 39 11 68 l-3 47 -47 -54z"/>
<path d="M1958 1344 c-40 -25 -52 -42 -19 -24 11 5 29 10 40 10 14 0 21 6 21
20 0 11 -1 20 -2 19 -2 0 -20 -11 -40 -25z"/>
<path d="M1991 1315 c-2 -5 -3 -14 -2 -18 1 -4 -14 -17 -33 -28 -19 -11 -37
-27 -40 -36 -5 -13 -4 -14 9 -3 18 15 54 5 38 -11 -12 -12 -5 -49 9 -49 5 0 7
-4 3 -10 -5 -8 -18 -113 -18 -145 0 -19 8 -40 18 -48 6 -5 4 -7 -5 -4 -8 2
-15 9 -15 15 0 5 -3 14 -7 18 -4 4 -5 19 -2 33 l6 26 -14 -24 c-7 -13 -26 -31
-43 -40 -62 -34 -100 -61 -87 -61 7 0 34 12 59 27 37 21 47 24 54 12 5 -8 7
-19 4 -26 -2 -7 2 -10 10 -7 7 3 18 -4 25 -15 7 -14 7 -21 0 -21 -5 0 -10 -5
-10 -11 0 -5 6 -7 13 -4 6 4 3 -1 -7 -9 -19 -15 -19 -16 10 -41 l29 -25 3 52
c2 32 -1 54 -8 56 -7 3 -7 9 2 20 12 15 11 16 -4 3 -15 -11 -21 -11 -33 -1 -8
7 -15 17 -15 22 0 6 7 5 15 -2 26 -22 45 5 45 64 l-1 51 -14 -30 -15 -30 6 30
c3 17 7 45 9 63 2 18 6 50 9 70 6 35 6 36 -10 17 -16 -20 -16 -19 -9 5 4 14
12 28 17 31 5 3 8 26 5 50 -2 24 -5 40 -6 34z m-47 -336 c-3 -5 -10 -7 -15 -3
-5 3 -7 10 -3 15 3 5 10 7 15 3 5 -3 7 -10 3 -15z"/>
<path d="M1617 1099 c-7 -27 -1 -37 14 -22 7 7 8 17 2 28 -9 15 -11 15 -16 -6z"/>
<path d="M1653 1068 c3 -9 0 -19 -8 -22 -9 -3 -12 0 -9 9 4 10 0 12 -15 8 -16
-4 -21 -13 -21 -38 0 -19 6 -35 14 -38 17 -7 46 23 46 46 0 20 16 23 23 5 3
-8 6 -8 6 -2 1 6 -9 19 -21 30 -18 16 -20 16 -15 2z"/>
<path d="M1835 1020 c-3 -6 1 -7 9 -4 18 7 21 14 7 14 -6 0 -13 -4 -16 -10z"/>
<path d="M1780 955 c-14 -8 -20 -14 -14 -15 5 0 19 7 30 15 24 18 16 19 -16 0z"/>
<path d="M1631 950 c-7 -35 -6 -46 8 -72 16 -29 7 -52 -10 -28 -8 11 -9 -3 -5
-47 3 -35 1 -73 -5 -86 -7 -17 -6 -31 6 -57 9 -20 14 -25 11 -12 -4 19 -2 21
9 12 8 -7 18 -9 24 -6 5 3 12 0 14 -6 10 -25 46 36 53 88 7 60 -10 107 -41
112 -31 6 -53 36 -58 78 -2 22 -5 32 -6 24z"/>
<path d="M1510 365 c0 -8 7 -15 16 -15 9 0 12 -5 8 -12 -4 -7 -3 -8 4 -4 18
11 14 24 -8 36 -16 9 -20 8 -20 -5z"/>
<path d="M1556 335 c-3 -8 -1 -15 4 -15 6 0 10 7 10 15 0 8 -2 15 -4 15 -2 0
-6 -7 -10 -15z"/>
<path d="M1625 300 c-13 -15 -16 -29 -11 -62 3 -24 6 -51 7 -60 0 -14 9 -17
39 -16 33 1 38 4 28 15 -8 10 -13 11 -18 3 -5 -8 -9 -7 -13 4 -3 8 -1 17 6 20
8 3 6 10 -7 20 -10 8 -15 20 -11 26 4 7 1 16 -6 21 -12 8 -11 11 4 20 18 10
23 29 9 29 -5 0 -17 -9 -27 -20z"/>
<path d="M1726 262 c-3 -6 4 -26 16 -46 19 -30 27 -35 48 -30 14 3 32 12 40
20 13 14 11 15 -25 10 -25 -3 -31 -3 -16 2 23 7 23 8 7 25 -10 9 -21 17 -26
17 -5 0 -15 3 -23 6 -8 3 -18 1 -21 -4z m51 -28 c-3 -3 -12 -4 -19 -1 -8 3 -5
6 6 6 11 1 17 -2 13 -5z"/>
<path d="M1708 203 c-21 -5 -24 -23 -4 -23 8 0 16 7 20 15 3 8 4 14 3 14 -1
-1 -10 -3 -19 -6z"/>
<path d="M1870 196 c0 -9 5 -16 10 -16 6 0 10 4 10 9 0 6 -4 13 -10 16 -5 3
-10 -1 -10 -9z"/>
<path d="M1899 189 c-9 -17 -7 -25 12 -45 21 -22 61 -34 58 -16 -4 22 3 24 15
3 13 -23 13 -21 14 25 0 43 -1 46 -11 26 -8 -18 -17 -22 -41 -20 -25 2 -31 7
-30 26 1 27 -2 28 -17 1z"/>
<path d="M50 165 c-34 -13 -33 -19 4 -15 10 1 29 -9 43 -22 l26 -23 -14 23
c-8 12 -17 22 -21 22 -4 0 -5 7 -2 15 4 8 5 15 3 14 -2 0 -20 -7 -39 -14z"/>
<path d="M1880 131 c0 -5 5 -13 10 -16 6 -3 10 -2 10 4 0 5 -4 13 -10 16 -5 3
-10 2 -10 -4z"/>
<path d="M1835 110 c3 -5 8 -10 11 -10 2 0 4 5 4 10 0 6 -5 10 -11 10 -5 0 -7
-4 -4 -10z"/>
<path d="M1870 96 c0 -9 5 -16 10 -16 6 0 10 4 10 9 0 6 -4 13 -10 16 -5 3
-10 -1 -10 -9z"/>
<path d="M1811 50 c14 -31 19 -36 19 -24 0 6 -7 19 -16 30 -14 18 -14 18 -3
-6z"/>
<path d="M1963 47 c5 -17 37 -21 37 -5 0 8 -9 14 -21 15 -12 1 -19 -3 -16 -10z"/>
</g>
</svg>
